<svg xmlns="http://www.w3.org/2000/svg" viewBox="0 0 64 64">
  <defs>
    <linearGradient id="g" x1="0" y1="0" x2="1" y2="1">
      <stop offset="0" stop-color="#ffd66b"/>
      <stop offset="1" stop-color="#ff9f43"/>
    </linearGradient>
  </defs>
  <rect x="2" y="2" width="60" height="60" rx="16" fill="url(#g)"/>
  <path d="M14 50 C 26 44, 20 30, 32 26 S 50 18, 50 12" fill="none" stroke="#2fae66" stroke-width="9" stroke-linecap="round"/>
  <path d="M14 50 C 26 44, 20 30, 32 26 S 50 18, 50 12" fill="none" stroke="#7fe3a8" stroke-width="3.5" stroke-linecap="round" stroke-dasharray="1 7"/>
  <circle cx="50" cy="12" r="7" fill="#2fae66"/>
  <circle cx="48" cy="10" r="2.1" fill="#fff"/>
  <circle cx="53" cy="10" r="2.1" fill="#fff"/>
  <circle cx="48.4" cy="10.4" r="1" fill="#222"/>
  <circle cx="53.4" cy="10.4" r="1" fill="#222"/>
  <rect x="34" y="36" width="20" height="20" rx="5" fill="#fff" stroke="#e5556e" stroke-width="2.5"/>
  <circle cx="40" cy="42" r="2.4" fill="#e5556e"/>
  <circle cx="48" cy="42" r="2.4" fill="#e5556e"/>
  <circle cx="40" cy="50" r="2.4" fill="#e5556e"/>
  <circle cx="48" cy="50" r="2.4" fill="#e5556e"/>
</svg>
